<svg width="510" height="708" xmlns="http://www.w3.org/2000/svg">
 <title>contract</title>

 <g>
  <title>background</title>
  <rect fill="none" id="canvas_background" height="710" width="512" y="-1" x="-1"/>
 </g>
 <g>
  <title>Layer 1</title>
  <path id="svg_1" fill="#3f3d56" d="m47.913319,58.339934a47.96791,47.96791 0 0 0 -47.91332,47.91332l0,551.98975a47.96778,47.96778 0 0 0 47.91332,47.91272l404.92466,0a47.96766,47.96766 0 0 0 47.91272,-47.91272l0,-551.98979a47.96778,47.96778 0 0 0 -47.91272,-47.91328l-404.92466,0z"/>
  <rect id="svg_2" fill="#fff" height="579.75263" width="450.91871" y="92.37149" x="24.91599"/>
  <rect id="svg_3" fill="#ff9311" height="21.87746" width="333.02352" y="196.28941" x="83.86359"/>
  <rect id="svg_4" fill="#ff9311" height="21.87746" width="333.02352" y="254.6293" x="83.86359"/>
  <rect id="svg_5" fill="#ff9311" height="21.87746" width="333.02352" y="312.96919" x="83.86359"/>
  <rect id="svg_6" fill="#ff9311" height="21.87746" width="333.02352" y="371.30907" x="83.86359"/>
  <rect id="svg_7" fill="#ff9311" height="21.87746" width="333.02352" y="429.64896" x="83.86359"/>
  <rect id="svg_8" fill="#ff9311" height="21.87746" width="333.02352" y="487.98885" x="83.86359"/>
  <rect id="svg_9" fill="#ff9311" height="21.87746" width="333.02352" y="546.32874" x="83.86359"/>
  <rect id="svg_10" fill="#e6e6e6" transform="rotate(-10.370530128479004 -265.4910583496093,11.516070365905799) " height="431.62449" width="335.70794" y="178.57154" x="66.705562"/>
  <rect id="svg_11" fill="#ff9311" transform="rotate(-10.370530128479004 -242.80136108398438,5.199860095977728) " height="16.28772" width="247.93524" y="251.75056" x="109.825579"/>
  <rect id="svg_12" fill="#ff9311" transform="rotate(-10.370530128479004 -250.3645935058594,7.305260181426869) " height="16.28772" width="247.93524" y="296.58035" x="110.081016"/>
  <rect id="svg_13" fill="#ff9311" transform="rotate(-10.370530128479004 -257.9278259277344,9.410670280456655) " height="16.28772" width="247.93524" y="341.41014" x="110.336464"/>
  <rect id="svg_14" fill="#ff9311" transform="rotate(-10.370530128479004 -265.4910583496093,11.516070365905799) " height="16.28772" width="247.93524" y="386.23992" x="110.591902"/>
  <rect id="svg_15" fill="#ff9311" transform="matrix(0.98366,-0.18001,0.18001,0.98366,-273.05427,13.62147) " height="16.28772" width="247.93524" y="417.44824" x="383.90164"/>
  <rect id="svg_16" fill="#ff9311" transform="rotate(-10.370530128479004 -280.6174926757812,15.726869583130062) " height="16.28772" width="247.93524" y="475.89949" x="111.102827"/>
  <rect id="svg_17" fill="#ff9311" transform="rotate(-10.370530128479004 -288.1807250976563,17.832269668579205) " height="16.28772" width="247.93524" y="520.72928" x="111.358265"/>
  <path id="svg_26" fill="#3f3d56" d="m333.865729,30.385364l-39.73546,0l0,-8.13468a22.25068,22.25068 0 0 0 -22.25068,-22.25068l-43.00848,0a22.25067,22.25067 0 0 0 -22.25065,22.25068l0,8.13468l-39.73548,0a22.25067,22.25067 0 0 0 -22.25067,22.25068l0,61.61289l211.48209,0l0,-61.61289a22.25067,22.25067 0 0 0 -22.25067,-22.25068z"/>
  <path id="svg_27" fill="#3f3d56" d="m236.111619,629.964934c6.5698,-4.49614 13.32206,-9.17218 21.12382,-11.21592c7.11815,-1.86465 15.29169,-1.37138 20.92177,3.84062c4.54356,4.20617 6.46192,10.671 3.09554,16.20474a10.29789,10.29789 0 0 1 -6.82246,4.96408a8.21862,8.21862 0 0 1 -7.38872,-2.88661c-1.7651,-1.95045 -2.82116,-4.83323 -1.88322,-7.40419c0.98627,-2.70345 3.62463,-4.3568 6.21589,-5.27948a46.00407,46.00407 0 0 1 9.27017,-1.915l12.89241,-1.76494l52.76891,-7.22392l58.76538,-8.04482a1.83592,1.83592 0 0 0 1.27334,-2.24265a1.87009,1.87009 0 0 0 -2.24265,-1.27334l-116.93112,16.00751c-4.2295,0.579 -8.51865,0.99359 -12.70418,1.84428a21.363,21.363 0 0 0 -9.12184,3.7888c-5.60138,4.43473 -5.20124,12.27858 -0.04661,16.918c5.21814,4.69652 12.78382,3.888 17.36291,-1.29921a15.74343,15.74343 0 0 0 1.19385,-19.291c-4.99863,-7.53725 -14.10711,-10.43294 -22.81019,-9.36395c-10.06518,1.23628 -18.59831,6.89386 -26.77333,12.48856c-1.92477,1.31724 -0.103,4.47836 1.84033,3.14842l0,0.00002z"/>
  <rect id="svg_42" height="5" width="171" y="-54.546875" x="739" fill-opacity="null" stroke-opacity="null" stroke-width="null" stroke="null" fill="#2f2e41"/>
 </g>
</svg>